<svg id="Capa_1" enable-background="new 0 0 512 512" height="512" viewBox="0 0 512 512" width="512" xmlns="http://www.w3.org/2000/svg"><g><path d="m471.074 160.403c2.678-8.403 2.1-17.333-1.7-25.387-9.478-20.084-21.873-38.793-36.841-55.607-2.754-3.094-7.496-3.368-10.589-.614-3.094 2.754-3.369 7.494-.615 10.589 14.014 15.741 25.615 33.249 34.48 52.035 2.35 4.979 2.542 10.548.54 15.682-6.286 16.129-29.007 17.104-36.519 1.337-12.603-26.458-31.563-49.728-54.83-67.298-31.646-23.896-69.338-36.528-109-36.528-38.951 0-76.095 12.223-107.417 35.347-23.528 17.37-41.983 39.288-54.853 65.144-7.699 15.469-30.325 14.412-36.445-1.9-1.936-5.159-1.661-10.701.773-15.606 10.547-21.258 24.597-40.739 41.76-57.901 41.717-41.721 97.183-64.696 156.182-64.696 52.281 0 101.034 17.574 140.988 50.822 3.183 2.65 7.912 2.217 10.562-.967 2.649-3.185 2.216-7.913-.968-10.562-42.681-35.519-94.752-54.293-150.582-54.293-63.005 0-122.239 24.535-166.789 69.086-18.316 18.316-33.319 39.123-44.59 61.843-3.934 7.929-4.669 16.787-2.157 25.199-9.484 25.424-14.305 52.236-14.305 79.746v105.588c0 35.823 29.144 64.967 64.966 64.967h33.377c19.559 0 35.471-15.912 35.471-35.472v-115.476c0-19.559-15.912-35.471-35.471-35.471h-33.377c-3.671 0-7.266.322-10.773.91 1.276-14.942 4.465-29.589 9.522-43.695 6.414-3.293 11.863-8.566 15.284-15.439 11.801-23.709 28.736-43.815 50.333-59.76 28.725-21.206 62.788-32.415 98.509-32.415 36.374 0 70.94 11.584 99.961 33.499 21.352 16.124 38.754 37.486 50.326 61.777 3.315 6.958 8.665 12.332 15.017 15.731 4.377 13.056 7.173 26.563 8.348 40.302-3.508-.589-7.105-.911-10.778-.911h-33.376c-19.559 0-35.471 15.912-35.471 35.471v115.476c0 19.56 15.912 35.472 35.471 35.472h33.376c5.364 0 10.574-.666 15.564-1.898-12.612 30.659-42.973 51.701-76.967 51.701h-6.997c-6.317-8.008-16.097-13.164-27.065-13.164h-50.753c-19.004 0-34.466 15.461-34.466 34.466s15.462 34.467 34.466 34.467h50.753c10.694 0 20.266-4.896 26.592-12.563h7.47c69.681 0 126.37-56.689 126.37-126.37v-31.604c0-10.364 0-94.585 0-105.588 0-25.929-4.302-51.302-12.767-75.472zm-363.595 74.608v93.067c0 4.143 3.358 7.5 7.5 7.5s7.5-3.357 7.5-7.5v-93.067h4.022c11.288 0 20.471 9.184 20.471 20.471v115.476c0 11.288-9.184 20.472-20.471 20.472h-4.022v-28.288c0-4.143-3.358-7.5-7.5-7.5s-7.5 3.357-7.5 7.5v28.288h-14.354c-27.551 0-49.966-22.415-49.966-49.967v-56.484c0-27.552 22.415-49.967 49.966-49.967h14.354zm-64.32 8.496v-7.633c0-21.796 3.231-43.116 9.607-63.566 6.364 5.661 14.158 8.558 22.036 8.792-4.37 14.417-6.984 29.293-7.804 44.416-9.281 4.093-17.434 10.287-23.839 17.991zm321.868 127.45v-115.476c0-11.287 9.184-20.471 20.471-20.471h4.022v156.418h-4.022c-11.288.001-20.471-9.183-20.471-20.471zm39.494 20.472v-156.418h14.354c27.552 0 49.967 22.415 49.967 49.967v56.484c0 27.552-22.415 49.967-49.967 49.967zm-81.112 105.571h-50.753c-10.733 0-19.466-8.732-19.466-19.466s8.732-19.466 19.466-19.466h50.753c10.733 0 19.466 8.732 19.466 19.466s-8.732 19.466-19.466 19.466zm34.062-12.563h-.291c.886-4.339.929-8.778.108-13.204h.184c44.867 0 84.367-31.059 95.213-74.317 5.912-3.618 11.193-8.161 15.665-13.415-5.279 56.535-52.988 100.936-110.879 100.936zm87.531-258.922c-.751-13.833-3.009-27.479-6.738-40.752 8.233-.105 16.091-3.131 22.203-8.327 5.56 19.205 8.374 39.137 8.374 59.438v7.634c-6.405-7.705-14.558-13.899-23.839-17.993z"/></g></svg>